<?xml version="1.0" standalone="no"?>
<!DOCTYPE svg PUBLIC "-//W3C//DTD SVG 20010904//EN"
 "http://www.w3.org/TR/2001/REC-SVG-20010904/DTD/svg10.dtd">
<svg version="1.0" xmlns="http://www.w3.org/2000/svg"
 width="225.000000pt" height="225.000000pt" viewBox="0 0 225.000000 225.000000"
 preserveAspectRatio="xMidYMid meet">

<g transform="translate(0.000000,225.000000) scale(0.100000,-0.100000)"
fill="#000000" stroke="none">
<path d="M975 2204 c-250 -40 -440 -137 -620 -318 -154 -156 -243 -314 -292
-523 -27 -117 -25 -377 4 -494 52 -207 156 -383 314 -533 201 -191 418 -281
699 -293 321 -13 595 94 817 319 143 146 236 311 286 508 29 116 31 376 3 494
-47 204 -141 371 -291 522 -155 155 -310 245 -510 295 -79 20 -336 34 -410 23z
m320 -49 c135 -24 156 -31 285 -92 297 -141 494 -395 567 -731 25 -115 22
-303 -6 -417 -24 -100 -32 -122 -73 -215 -37 -82 -129 -220 -142 -213 -5 3 -6
1 -3 -4 6 -10 -58 -85 -68 -80 -2 1 -13 -10 -25 -25 -12 -16 -35 -30 -54 -34
-22 -4 -37 -14 -44 -29 -6 -13 -33 -34 -59 -46 -26 -13 -52 -25 -57 -27 -5 -3
-6 0 -2 7 4 6 0 11 -9 11 -10 0 -13 -5 -9 -12 5 -7 3 -8 -5 -3 -7 4 -23 3 -34
-3 -49 -22 -79 -32 -97 -32 -11 0 -20 -4 -20 -8 0 -17 -110 -34 -256 -39 -186
-7 -339 14 -424 57 -30 16 -73 34 -95 40 -22 7 -47 19 -56 27 -14 12 -17 12
-22 -2 -9 -23 -27 -18 -27 8 0 16 -3 19 -9 8 -11 -17 -41 -7 -41 13 0 7 -11
17 -24 20 -30 7 -188 161 -210 204 -9 18 -20 32 -24 32 -5 0 -14 17 -21 37 -8
21 -17 40 -21 43 -15 11 -63 129 -86 210 -13 47 -29 133 -36 191 -10 91 -9
121 5 210 23 139 50 226 104 335 63 129 161 255 261 335 85 68 236 152 330
183 161 54 354 69 507 41z m-651 -1897 c4 3 4 -2 0 -13 -5 -11 -9 -14 -12 -7
-2 7 -10 12 -18 12 -8 0 -14 5 -14 10 0 7 6 7 19 1 10 -6 21 -7 25 -3z"/>
<path d="M915 2051 c-143 -35 -247 -84 -352 -162 -183 -137 -305 -323 -359
-546 -71 -296 23 -654 226 -860 17 -18 29 -37 25 -43 -3 -5 0 -8 7 -5 7 2 33
-13 56 -35 24 -22 47 -40 51 -40 4 0 16 -8 27 -18 54 -50 233 -122 371 -148
115 -21 276 -15 393 15 331 87 583 334 682 669 20 67 23 100 23 247 0 189 -9
238 -70 378 -47 110 -90 177 -163 258 -136 148 -309 250 -499 293 -99 22 -323
21 -418 -3z m407 -312 c155 -16 256 -57 325 -132 94 -102 77 -219 -49 -332
-29 -27 -48 -50 -42 -52 6 -2 38 -23 71 -47 80 -59 108 -113 107 -213 -2 -208
-201 -368 -517 -413 -44 -7 -75 -7 -86 0 -10 5 -38 42 -62 82 l-44 73 -3 -63
-3 -62 -174 0 c-174 0 -175 0 -177 23 0 12 -2 27 -3 32 -2 6 -3 165 -4 354
l-1 343 -63 -6 -63 -7 -12 83 c-24 164 -26 235 -9 252 23 23 256 69 457 89 79
8 256 6 352 -4z"/>
<path d="M1020 1335 l0 -65 60 0 c47 0 69 6 104 27 44 27 67 68 51 93 -4 6
-50 10 -111 10 l-104 0 0 -65z"/>
<path d="M1155 1000 c-34 -5 -76 -12 -95 -17 l-35 -9 0 -70 0 -69 45 -2 c54
-2 174 40 207 73 25 25 40 71 27 84 -15 14 -86 18 -149 10z"/>
<path d="M1660 294 l-25 -15 25 5 c14 3 28 6 33 6 4 0 7 5 7 10 0 14 -10 12
-40 -6z"/>
</g>
</svg>
